# xmcd
#
# Track frame offsets:
#	150
#	12600
#	27018
#	40603
#	55870
#	68698
#	84907
#	98755
#	112530
#	123851
#	136963
#	151663
#	166336
#
# Disc length: 2391 seconds
# Revision: 0
# Processed by: cddbd v1.5.2PL0 Copyright (c) Steve Scherf et al.
# Submitted via: dBpowerAMP V12.0
#
DISCID=8a09550d
DTITLE=Nightflyer - Rail River and Road
DYEAR=2014
DGENRE=Country
TTITLE0=Train, Train
TTITLE1=Old River
TTITLE2=Coos County Jail
TTITLE3=Lonesome Wind
TTITLE4=White Lightning Blues
TTITLE5=Life Is a Train
TTITLE6=Train Whistle Blowing
TTITLE7=You Don't Have to Go Home (But You Can't Stay Here)
TTITLE8=Gospel News
TTITLE9=The Road to Glory
TTITLE10=The Man I've Come to Know
TTITLE11=Keep It In The Middle of the Road
TTITLE12=Seven Devils Ridge
EXTD=
EXTT0=
EXTT1=
EXTT2=
EXTT3=
EXTT4=
EXTT5=
EXTT6=
EXTT7=
EXTT8=
EXTT9=
EXTT10=
EXTT11=
EXTT12=
PLAYORDER=
